<?xml version="1.0" standalone="no"?>
<!DOCTYPE svg PUBLIC "-//W3C//DTD SVG 20010904//EN"
 "http://www.w3.org/TR/2001/REC-SVG-20010904/DTD/svg10.dtd">
<svg version="1.0" xmlns="http://www.w3.org/2000/svg"
 width="512.000000pt" height="512.000000pt" viewBox="0 0 512.000000 512.000000"
 preserveAspectRatio="xMidYMid meet">

<g transform="translate(0.000000,512.000000) scale(0.100000,-0.100000)"
fill="#000000" stroke="none">
<path d="M2320 5084 c-14 -3 -70 -12 -125 -20 -495 -77 -951 -307 -1324 -669
-378 -367 -606 -768 -726 -1278 -47 -200 -59 -314 -59 -567 -1 -246 8 -337 50
-543 178 -873 819 -1583 1694 -1877 404 -135 837 -159 1251 -69 475 103 942
364 1279 715 110 115 194 216 272 329 224 322 373 725 424 1145 28 241 13 599
-36 820 -109 495 -338 915 -690 1270 -281 283 -591 483 -940 608 -304 108
-452 134 -790 137 -140 2 -266 1 -280 -1z m600 -203 c385 -70 699 -206 1007
-437 501 -376 829 -914 918 -1502 8 -56 15 -106 15 -111 0 -27 -257 -200 -330
-222 -30 -9 -45 -26 -102 -114 l-66 -103 -97 -23 -97 -24 -48 -70 c-61 -90
-115 -158 -220 -279 -66 -75 -103 -108 -165 -146 -80 -48 -159 -90 -170 -90
-3 0 -5 37 -5 83 l0 82 20 -30 c11 -16 20 -26 20 -21 0 13 -48 143 -66 177
-23 46 -7 49 32 7 33 -36 44 -36 24 1 -9 18 -100 328 -100 340 0 3 21 -30 46
-74 36 -64 44 -73 38 -45 -6 32 -43 165 -59 215 -6 17 -3 16 17 -6 12 -14 35
-41 50 -60 l27 -34 -23 70 c-33 100 -58 144 -131 235 -36 45 -56 76 -46 70 11
-5 23 -14 26 -20 3 -5 20 -19 38 -32 l31 -23 -21 35 c-75 123 -109 190 -97
190 2 0 17 -8 31 -17 30 -20 28 -13 -15 45 -13 17 -22 32 -20 32 2 0 28 -7 57
-16 94 -28 70 -3 -69 69 -74 38 -130 79 -85 62 42 -16 211 -65 225 -65 8 0 -3
12 -25 27 -48 32 -107 85 -101 90 2 2 21 -6 42 -19 40 -24 40 -22 -6 47 -45
67 -45 71 -8 43 49 -37 53 -35 23 12 -32 50 -77 151 -70 158 2 3 20 -9 40 -27
20 -17 38 -31 40 -31 6 0 -100 164 -135 210 -44 58 -45 63 -4 41 22 -12 50
-29 64 -39 19 -13 15 -4 -20 47 -47 71 -93 174 -66 152 16 -13 17 -8 31 129
13 126 -33 364 -81 415 -27 30 -70 33 -121 8 -33 -15 -200 -174 -307 -291 -27
-29 -57 -57 -67 -62 -17 -10 -17 -8 -3 27 l16 38 -36 -34 c-37 -36 -55 -37
-37 -3 18 33 14 33 -46 -3 -32 -19 -63 -35 -69 -35 -7 0 -35 16 -63 35 -56 39
-58 38 -36 -5 20 -39 14 -38 -37 8 -42 37 -45 34 -23 -22 16 -39 -30 2 -140
125 -169 188 -276 260 -341 230 -52 -23 -104 -205 -104 -362 0 -91 20 -225 31
-207 7 10 9 9 9 -5 0 -21 -33 -90 -64 -132 -40 -54 -39 -58 8 -30 52 30 70 27
39 -8 -27 -29 -154 -219 -150 -223 2 -2 20 10 41 27 20 17 39 29 41 27 6 -6
-60 -143 -87 -180 l-21 -30 21 11 c11 6 24 16 27 21 3 5 15 15 26 21 18 9 19
9 10 -9 -6 -11 -26 -41 -46 -66 -19 -25 -35 -48 -35 -51 0 -3 19 6 43 20 37
23 33 18 -28 -39 l-70 -66 55 19 c206 70 236 66 87 -9 -117 -60 -154 -96 -67
-65 61 21 63 20 35 -25 -30 -48 -32 -59 -5 -35 41 37 31 3 -28 -100 -33 -58
-56 -105 -52 -105 5 0 11 4 15 9 3 5 24 24 48 43 44 34 40 26 -29 -57 -61 -73
-100 -143 -117 -205 -8 -30 -18 -64 -22 -75 -10 -26 2 -13 49 53 21 28 40 52
42 52 3 0 3 -4 0 -9 -8 -13 -68 -243 -64 -246 2 -2 19 26 38 61 19 36 36 61
38 56 5 -15 -68 -285 -94 -347 -4 -10 9 0 31 23 21 23 40 41 42 38 3 -2 -5
-26 -17 -53 -26 -58 -70 -183 -65 -183 3 0 13 17 24 38 l20 37 1 -97 0 -97
-102 49 c-90 42 -116 61 -213 152 -60 57 -132 121 -158 142 -36 29 -76 84
-158 217 l-111 178 -140 73 c-151 79 -174 98 -317 268 l-72 85 6 57 c3 32 19
110 35 175 106 435 336 829 667 1142 235 224 468 370 766 482 186 71 372 114
607 143 93 11 419 -3 530 -23z m-897 -798 c-7 -2 -21 -2 -30 0 -10 3 -4 5 12
5 17 0 24 -2 18 -5z m1110 0 c-7 -2 -19 -2 -25 0 -7 3 -2 5 12 5 14 0 19 -2
13 -5z m-1095 -40 c-10 -2 -28 -2 -40 0 -13 2 -5 4 17 4 22 1 32 -1 23 -4z
m1115 0 c-7 -2 -21 -2 -30 0 -10 3 -4 5 12 5 17 0 24 -2 18 -5z m-1083 -43
c15 -5 -1 -6 -40 -3 -36 3 -67 7 -69 9 -8 7 84 2 109 -6z m1070 -1 c-25 -4
-56 -8 -70 -8 -23 0 -23 1 -5 9 11 5 43 8 70 8 l50 -1 -45 -8z m-1082 -30 c29
-6 51 -13 49 -15 -5 -5 -137 23 -145 31 -7 7 1 5 96 -16z m1082 2 c-42 -13
-126 -23 -117 -15 8 8 81 21 122 22 15 0 14 -2 -5 -7z m-1026 -61 c9 -9 -4 -6
-79 14 -11 3 0 3 25 0 25 -3 49 -9 54 -14z m961 5 c-33 -7 -62 -12 -64 -10 -6
7 63 23 94 23 18 0 7 -5 -30 -13z m-988 -30 c20 -8 34 -18 30 -21 -3 -3 -22 4
-44 15 -45 24 -37 27 14 6z m960 -11 c-27 -14 -51 -23 -53 -21 -5 5 76 46 91
46 6 0 -12 -11 -38 -25z m-657 -84 c0 -21 -15 -27 -25 -10 -7 12 2 30 16 30 5
0 9 -9 9 -20z m378 -12 c-6 -18 -28 -21 -28 -4 0 9 7 16 16 16 9 0 14 -5 12
-12z m-518 -153 c0 -8 -4 -15 -10 -15 -5 0 -10 7 -10 15 0 8 5 15 10 15 6 0
10 -7 10 -15z m650 -1 c0 -8 -4 -12 -10 -9 -5 3 -10 10 -10 16 0 5 5 9 10 9 6
0 10 -7 10 -16z m-590 -89 c0 -8 -7 -15 -15 -15 -8 0 -15 7 -15 15 0 8 7 15
15 15 8 0 15 -7 15 -15z m550 -6 c0 -5 -7 -9 -15 -9 -15 0 -20 12 -9 23 8 8
24 -1 24 -14z m-400 -64 c0 -8 -4 -15 -9 -15 -13 0 -22 16 -14 24 11 11 23 6
23 -9z m240 0 c0 -8 -4 -15 -9 -15 -13 0 -22 16 -14 24 11 11 23 6 23 -9z
m-525 -85 c18 -8 19 -9 1 -9 -15 -1 -17 -6 -11 -28 22 -91 58 -126 131 -127
38 -1 46 -4 51 -24 3 -13 3 -25 0 -29 -10 -9 -128 15 -154 32 -31 21 -61 69
-75 122 -10 35 -17 44 -42 50 l-31 7 30 7 c42 9 76 9 100 -1z m886 0 c11 0 19
-4 19 -10 0 -5 -11 -10 -25 -10 -20 0 -26 -7 -36 -42 -26 -98 -76 -139 -186
-151 -55 -6 -61 -1 -43 34 8 14 21 19 56 19 39 0 51 5 79 33 37 37 57 103 35
117 -18 11 16 20 54 14 16 -2 37 -4 47 -4z m-771 -46 c24 -21 28 -29 19 -40
-20 -24 -58 -17 -69 12 -23 59 -2 71 50 28z m613 4 c9 -33 -10 -58 -44 -58
-42 0 -50 27 -15 57 34 29 52 29 59 1z m-463 -357 c0 -26 11 -46 50 -88 56
-61 69 -98 23 -64 -16 11 -45 36 -65 55 -38 35 -38 35 -37 113 1 74 1 77 14
48 8 -16 14 -45 15 -64z m290 5 l0 -59 -67 -63 c-38 -34 -69 -59 -71 -53 -5
14 35 75 69 103 19 17 29 34 29 53 0 15 5 46 11 67 15 53 29 30 29 -48z m-747
8 c-4 -10 -9 -12 -15 -6 -12 12 -1 35 12 27 5 -3 6 -13 3 -21z m1197 5 c0 -5
-7 -9 -15 -9 -15 0 -20 12 -9 23 8 8 24 -1 24 -14z m-510 -13 c0 -8 -9 -17
-20 -21 -11 -3 -34 -24 -53 -45 l-33 -39 -19 29 c-11 16 -34 37 -52 47 -61 32
-43 43 72 43 84 0 105 -3 105 -14z m-465 -81 c28 -13 24 -13 -58 -14 -124 -1
-222 -18 -296 -52 -58 -26 -62 -27 -45 -8 32 35 99 69 166 84 71 16 184 11
233 -10z m926 15 c64 -12 167 -60 195 -91 l19 -22 -40 21 c-76 38 -148 53
-278 59 -70 3 -125 8 -123 11 9 8 109 30 142 31 17 1 56 -4 85 -9z m-2711
-229 c65 -84 67 -86 169 -132 l104 -46 65 -144 c79 -177 97 -225 79 -212 -27
21 -172 138 -177 143 -3 3 -33 29 -67 58 -44 38 -71 53 -95 55 -18 1 -40 8
-48 16 -13 13 -13 14 3 8 12 -5 17 -1 17 13 0 27 -14 32 -36 14 -10 -9 -14
-13 -7 -10 7 4 9 -1 6 -14 -10 -37 -20 -30 -18 12 2 37 1 40 -11 23 -7 -10
-11 -22 -8 -26 3 -5 -3 -9 -12 -9 -10 0 -15 3 -11 6 3 3 2 17 -4 30 -7 19 -5
26 6 30 8 4 15 14 15 23 -1 14 -2 14 -15 -3 -8 -10 -19 -15 -26 -10 -8 4 -10
3 -5 -4 5 -8 2 -10 -8 -6 -9 3 -14 10 -11 14 3 5 1 11 -4 14 -5 4 -8 -6 -6
-21 4 -39 -4 -55 -19 -41 -17 16 -20 72 -4 62 9 -5 8 -2 -1 10 -13 15 -13 19
0 27 10 6 10 9 2 9 -14 0 -18 124 -6 219 l6 54 31 -38 c17 -21 60 -77 96 -124z
m1820 130 c0 -6 -21 -13 -47 -16 -138 -19 -303 -73 -390 -128 -66 -41 -69 -41
-28 2 64 68 164 116 300 145 40 8 165 6 165 -3z m910 -22 c87 -30 166 -78 215
-130 37 -39 38 -41 8 -21 -96 66 -285 133 -445 157 -21 3 -38 11 -38 17 0 19
187 3 260 -23z m1694 -76 c-46 -106 -128 -347 -114 -338 4 2 38 45 76 95 64
84 69 89 72 63 6 -48 -9 -177 -19 -162 -8 12 -13 6 -10 -13 0 -3 -7 -5 -17 -3
-20 3 -54 -24 -46 -37 3 -4 0 -7 -8 -6 -7 2 -12 -3 -10 -10 1 -8 -1 -11 -6 -8
-19 12 -260 -267 -312 -361 -13 -24 -26 -41 -28 -38 -6 6 36 172 54 215 8 19
35 50 60 69 24 19 43 36 41 38 -2 2 -35 -14 -73 -35 -38 -21 -94 -48 -124 -60
l-55 -22 -55 -113 -55 -112 -5 69 -5 69 -45 -49 c-25 -27 -63 -73 -85 -101
-36 -49 -47 -57 -67 -54 -5 0 -7 -4 -5 -10 1 -6 -6 -13 -16 -14 -15 -3 -16 -1
-5 12 11 14 8 14 -20 -1 -19 -10 -30 -21 -26 -28 4 -6 3 -8 -3 -5 -6 4 -28 -5
-49 -20 -129 -90 -209 -141 -214 -137 -3 3 9 18 26 32 143 122 305 267 336
298 20 22 55 74 78 117 38 71 47 80 99 106 46 24 64 41 99 95 39 60 166 196
183 196 3 0 -11 -48 -32 -107 -21 -59 -36 -109 -35 -111 7 -6 96 102 178 215
77 105 242 303 254 303 2 0 -3 -17 -12 -37z m-2592 -3 c-18 -11 -35 -20 -38
-20 -21 0 -186 -125 -239 -181 -36 -38 -65 -67 -65 -63 0 20 95 147 133 178
67 55 166 106 207 106 l35 0 -33 -20z m729 -17 c86 -42 203 -152 239 -223 23
-45 22 -45 -54 32 -78 78 -173 147 -258 189 -27 13 -48 27 -48 31 0 18 52 6
121 -29z m-333 -26 c15 -16 10 -17 -81 -17 -98 0 -115 8 -63 31 33 14 124 5
144 -14z m-2288 -197 c0 -5 -2 -10 -4 -10 -3 0 -8 5 -11 10 -3 6 -1 10 4 10 6
0 11 -4 11 -10z m3043 -56 c9 -9 -4 -35 -14 -28 -5 3 -9 12 -9 20 0 14 12 19
23 8z m-1633 -19 c0 -8 -4 -15 -9 -15 -13 0 -22 16 -14 24 11 11 23 6 23 -9z
m1330 -50 c0 -8 -7 -15 -15 -15 -9 0 -12 6 -9 15 4 8 10 15 15 15 5 0 9 -7 9
-15z m-930 -10 c0 -8 -7 -15 -15 -15 -8 0 -15 7 -15 15 0 8 7 15 15 15 8 0 15
-7 15 -15z m2668 -9 c-7 -8 -15 -12 -17 -11 -5 6 10 25 20 25 5 0 4 -6 -3 -14z
m-2247 -76 c24 -14 25 -56 1 -69 -41 -22 -85 45 -44 68 21 13 20 13 43 1z
m-2129 -68 c96 -37 177 -75 218 -103 59 -41 186 -101 300 -143 28 -10 79 -47
135 -98 130 -118 256 -238 248 -238 -3 0 -44 20 -90 45 -46 25 -83 43 -83 40
0 -3 -13 1 -29 9 -22 12 -31 12 -41 3 -10 -9 -11 -9 -5 2 6 10 4 12 -6 5 -8
-5 -23 -7 -34 -5 -19 3 -19 2 -2 -16 9 -11 17 -23 17 -28 0 -4 -9 4 -20 18
-11 14 -19 32 -18 39 2 7 -3 12 -9 11 -14 -3 -50 49 -85 121 -15 31 -29 46
-47 49 -14 3 -34 9 -45 13 -17 6 -17 5 -3 -22 21 -42 59 -162 55 -174 -2 -6
-31 27 -65 72 -34 46 -111 137 -172 203 -97 105 -118 122 -164 137 -176 58
-210 73 -218 96 -5 13 -4 22 1 22 6 0 79 -26 162 -58z m2888 -6 c0 -8 -4 -17
-9 -21 -12 -7 -24 12 -16 25 9 15 25 12 25 -4z m-1262 -28 c16 -16 15 -33 -4
-52 -22 -23 -43 -20 -56 9 -19 41 28 75 60 43z m996 6 c21 -8 21 -53 0 -61
-18 -7 -45 6 -51 24 -2 6 3 18 12 27 19 18 18 18 39 10z m-154 -225 c0 -10 -7
-19 -15 -19 -15 0 -21 31 -9 43 11 10 24 -3 24 -24z m358 19 c35 -35 -15 -99
-53 -68 -30 25 -12 80 25 80 9 0 21 -5 28 -12z m1510 -26 c-9 -35 -17 -43 -84
-77 -40 -21 -71 -42 -67 -48 4 -6 1 -7 -6 -3 -7 5 -49 -10 -97 -33 -83 -41
-228 -101 -242 -101 -3 0 9 11 28 23 88 59 458 277 471 277 4 0 2 -17 -3 -38z
m-2564 19 c3 -5 -1 -14 -8 -20 -16 -13 -32 2 -21 19 8 12 22 13 29 1z m-1805
-22 c45 -17 65 -32 101 -77 24 -32 38 -52 30 -45 -8 6 -57 32 -107 57 -71 35
-93 51 -93 66 0 25 0 25 69 -1z m841 -62 c52 -27 106 -57 120 -66 14 -10 59
-35 100 -56 148 -75 415 -218 425 -227 6 -5 -6 -3 -25 6 -19 8 -109 47 -200
86 -91 39 -175 76 -187 82 -16 8 -26 8 -36 0 -15 -13 -63 9 -137 64 -45 33
-184 169 -165 163 6 -2 53 -26 105 -52z m625 -72 c0 -35 -31 -47 -51 -20 -18
25 0 57 29 53 17 -2 22 -10 22 -33z m744 -86 c19 -9 29 -19 23 -22 -5 -4 -8
-15 -5 -26 3 -12 -2 -20 -16 -24 -15 -4 -21 -13 -21 -33 l0 -27 -25 23 -25 24
-29 -28 -28 -27 0 27 c0 15 -9 33 -19 41 -19 14 -19 15 11 31 19 10 19 11 -5
20 l-25 10 28 11 c18 7 34 25 45 50 l17 39 20 -37 c11 -20 36 -43 54 -52z
m-2009 -49 c169 -72 292 -127 628 -287 39 -18 72 -36 72 -40 0 -3 -8 -2 -17 2
-10 4 -38 14 -63 21 l-45 15 65 -67 65 -66 -60 36 c-33 20 -68 36 -77 36 -10
0 -18 3 -18 8 0 4 -16 8 -35 9 -19 1 -42 9 -51 17 -8 9 -20 16 -27 16 -6 0 -2
-7 9 -16 18 -15 17 -15 -6 -2 -14 8 -43 41 -66 73 -25 35 -56 66 -80 78 -100
52 -402 180 -426 181 -14 1 -24 4 -22 7 2 3 -7 11 -21 17 -26 12 -59 59 -34
50 8 -3 102 -43 209 -88z m3030 22 c0 -10 -93 -91 -145 -126 -35 -24 -163 -71
-171 -63 -2 2 16 19 41 37 25 18 43 35 41 38 -5 4 -95 -31 -200 -77 -117 -53
-103 -36 33 39 189 104 401 184 401 152z m-1465 -27 c0 -13 -8 -21 -22 -23
-19 -3 -23 1 -23 23 0 22 4 26 23 23 14 -2 22 -10 22 -23z m783 2 c4 -20 -25
-34 -40 -19 -15 15 -1 44 19 40 10 -2 19 -11 21 -21z m1723 -1 c-6 -8 -23 -17
-36 -20 -14 -4 -25 -11 -25 -16 0 -5 -6 -7 -13 -4 -7 2 -37 -8 -67 -23 -54
-27 -61 -29 -90 -32 -13 -1 -13 -2 0 -11 13 -8 12 -10 -3 -10 -18 0 -71 -26
-117 -57 -16 -11 -11 -1 15 26 l40 42 -54 -21 c-29 -11 -55 -19 -58 -17 -6 7
95 67 142 85 52 19 269 79 274 75 2 -1 -1 -9 -8 -17z m-448 -22 c8 -8 -75 -74
-150 -120 -54 -32 -159 -71 -169 -62 -2 3 26 23 62 47 37 23 64 44 61 47 -11
11 -163 -47 -215 -82 -29 -19 -72 -42 -95 -49 l-42 -15 39 35 c47 41 42 42
-55 11 -41 -13 -76 -22 -78 -20 -16 16 411 179 534 204 51 10 100 12 108 4z
m-2881 -177 c21 -17 36 -32 35 -34 -4 -3 -178 65 -186 73 -3 3 22 2 55 -2 44
-5 68 -15 96 -37z m2844 -44 c-4 -4 -31 -17 -59 -28 -46 -19 -52 -25 -55 -52
-4 -40 -13 -47 -87 -68 -33 -9 -75 -25 -94 -36 -18 -11 -35 -18 -38 -16 -7 8
53 41 122 67 63 23 70 29 76 58 8 42 8 41 71 63 59 20 75 23 64 12z m234 -10
c0 -5 -20 -21 -45 -38 -44 -30 -49 -38 -69 -127 -4 -17 -16 -29 -34 -36 -16
-5 -45 -24 -65 -42 -21 -18 -37 -28 -37 -24 0 13 63 74 77 74 25 0 53 39 53
73 0 41 12 58 70 96 50 34 50 34 50 24z m-3684 -65 c18 -18 35 -44 38 -58 6
-23 6 -23 -5 -5 -6 11 -32 42 -58 69 -25 26 -37 44 -26 38 11 -6 34 -25 51
-44z m1072 -8 c28 -17 52 -36 52 -42 0 -7 -14 -26 -31 -44 l-31 -32 -35 24
c-41 28 -63 30 -102 9 -34 -17 -45 -50 -28 -85 10 -20 30 -31 99 -53 73 -23
93 -34 115 -64 25 -32 28 -44 28 -117 0 -58 -5 -90 -18 -113 -59 -110 -224
-124 -317 -28 l-34 35 30 31 31 31 38 -26 c92 -63 199 -4 168 91 -7 21 -22 33
-59 47 -27 10 -66 26 -87 34 -100 41 -134 166 -72 263 48 75 159 92 253 39z
m447 -25 l0 -50 -52 -3 -53 -3 -2 -262 -3 -262 -49 0 -50 0 3 263 3 262 -56 0
-56 0 0 55 0 56 158 -3 157 -3 0 -50z m344 35 c22 -11 50 -36 62 -57 23 -37
24 -45 24 -244 0 -203 0 -206 -25 -242 -50 -74 -155 -98 -240 -54 -84 43 -99
87 -100 288 0 211 16 264 90 308 47 28 137 28 189 1z m463 -10 c21 -14 45 -41
55 -60 36 -75 25 -189 -23 -237 l-24 -24 40 -128 c22 -71 40 -136 40 -145 0
-13 -10 -16 -49 -16 l-50 0 -36 118 c-20 64 -38 123 -40 130 -3 7 -21 12 -44
12 l-40 0 -3 -127 -3 -128 -44 -3 c-28 -2 -47 1 -52 10 -11 16 -12 612 -1 622
4 4 59 6 122 4 102 -3 119 -6 152 -28z m288 -82 c24 -62 47 -117 51 -121 3 -5
19 27 34 70 58 164 58 163 109 163 35 0 46 -4 46 -15 0 -9 -31 -100 -70 -202
l-70 -187 0 -118 0 -118 -44 0 c-31 0 -46 5 -50 16 -3 9 -6 67 -6 130 l0 115
-71 172 c-95 229 -92 207 -27 207 l54 0 44 -112z m-2431 -39 c58 -58 42 -62
-18 -6 -28 26 -44 47 -37 47 8 0 32 -19 55 -41z m363 -133 c44 -29 61 -97 37
-148 -12 -27 -68 -68 -92 -68 -26 0 -20 18 11 34 48 25 64 50 60 96 -5 69 -52
93 -143 75 -37 -7 -39 -7 -26 8 30 37 99 38 153 3z m2646 4 c105 -64 57 -220
-68 -220 -41 0 -53 5 -78 30 -56 55 -54 129 4 180 42 36 93 40 142 10z m-2783
-70 c-22 -23 -41 -36 -43 -30 -4 12 56 69 73 70 5 0 -9 -18 -30 -40z m95 16
c0 -12 -106 -104 -113 -99 -11 7 83 103 100 103 7 0 13 -2 13 -4z m24 -55 c4
-5 -15 -28 -41 -50 -58 -49 -72 -33 -17 20 42 40 50 44 58 30z m806 -446 l0
-105 65 0 65 0 0 -30 0 -30 -100 0 -100 0 0 135 0 135 35 0 35 0 0 -105z m315
60 c14 -25 30 -43 36 -40 5 4 18 24 29 46 18 34 25 39 55 39 l36 0 -16 -30
c-9 -17 -29 -52 -45 -77 -24 -38 -30 -58 -30 -105 l0 -58 -35 0 -35 0 0 61 c0
55 -4 67 -45 130 -25 38 -45 72 -45 74 0 3 15 5 34 5 30 0 37 -6 61 -45z m396
-27 l54 -73 3 73 3 72 29 0 30 0 0 -135 0 -135 -24 0 c-18 0 -36 17 -75 71
-29 39 -54 70 -56 68 -4 -5 -14 -79 -15 -111 0 -24 -4 -28 -30 -28 l-30 0 0
135 0 135 29 0 c24 0 37 -12 82 -72z m303 44 c27 -53 39 -55 66 -12 21 34 30
40 58 40 24 0 31 -3 26 -12 -4 -7 -23 -37 -42 -66 l-33 -53 27 -47 c15 -26 34
-57 42 -69 14 -22 13 -23 -20 -23 -30 0 -37 5 -57 40 -12 22 -25 40 -29 40 -4
0 -18 -18 -32 -40 -21 -33 -30 -40 -57 -40 -18 0 -33 2 -33 5 0 3 18 34 40 68
l39 62 -21 35 c-12 19 -30 50 -40 68 l-20 32 36 0 c29 0 38 -5 50 -28z"/>
<path d="M2774 4785 c-4 -9 -2 -21 4 -27 16 -16 47 -5 47 17 0 26 -42 34 -51
10z"/>
<path d="M3270 4654 c0 -8 5 -12 10 -9 6 3 10 10 10 16 0 5 -4 9 -10 9 -5 0
-10 -7 -10 -16z"/>
<path d="M2320 4616 c0 -9 7 -16 16 -16 9 0 14 5 12 12 -6 18 -28 21 -28 4z"/>
<path d="M3018 4619 c-36 -21 -16 -79 27 -79 43 0 59 44 27 73 -21 19 -30 20
-54 6z"/>
<path d="M1987 4593 c-12 -11 -7 -41 7 -46 21 -8 48 16 40 36 -6 17 -35 23
-47 10z"/>
<path d="M2546 4564 c-31 -31 -13 -74 31 -74 21 0 43 25 43 49 0 14 -29 41
-45 41 -7 0 -21 -7 -29 -16z"/>
<path d="M1762 4559 c2 -6 8 -10 13 -10 5 0 11 4 13 10 2 6 -4 11 -13 11 -9 0
-15 -5 -13 -11z"/>
<path d="M3350 4554 c0 -9 7 -14 17 -12 25 5 28 28 4 28 -12 0 -21 -6 -21 -16z"/>
<path d="M1550 4410 c-26 -48 30 -91 70 -55 24 22 25 38 4 59 -22 22 -61 20
-74 -4z"/>
<path d="M3580 4387 c-15 -20 -14 -24 7 -46 18 -19 23 -21 23 -8 0 9 7 20 16
25 15 8 15 11 -5 31 -25 25 -22 25 -41 -2z"/>
<path d="M2452 4339 c2 -6 8 -10 13 -10 5 0 11 4 13 10 2 6 -4 11 -13 11 -9 0
-15 -5 -13 -11z"/>
<path d="M2305 4310 c-4 -7 -3 -16 3 -22 14 -14 45 -2 40 15 -6 16 -34 21 -43
7z"/>
<path d="M1340 4280 c0 -16 5 -21 23 -18 12 2 22 10 22 18 0 8 -10 16 -22 18
-18 3 -23 -2 -23 -18z"/>
<path d="M1187 4269 c-22 -13 -22 -58 -1 -66 39 -15 73 46 37 65 -12 7 -25 7
-36 1z"/>
<path d="M3946 4244 c-8 -21 1 -34 24 -34 19 0 30 17 23 38 -7 17 -40 15 -47
-4z"/>
<path d="M2715 4220 c-3 -5 1 -10 10 -10 9 0 13 5 10 10 -3 6 -8 10 -10 10 -2
0 -7 -4 -10 -10z"/>
<path d="M3820 4200 c0 -5 5 -10 10 -10 6 0 10 5 10 10 0 6 -4 10 -10 10 -5 0
-10 -4 -10 -10z"/>
<path d="M980 4110 c0 -5 5 -10 10 -10 6 0 10 5 10 10 0 6 -4 10 -10 10 -5 0
-10 -4 -10 -10z"/>
<path d="M1191 4014 c-248 -66 -441 -320 -441 -580 0 -90 30 -210 72 -283 40
-71 138 -168 204 -203 105 -56 235 -72 347 -43 71 18 158 62 137 68 -8 2 -40
12 -70 21 -164 47 -315 199 -366 365 -50 167 -6 357 116 493 59 66 153 131
216 148 24 7 44 17 44 21 0 14 -200 9 -259 -7z"/>
<path d="M3702 4022 c-9 -6 0 -12 26 -20 60 -18 151 -82 214 -150 95 -103 138
-215 138 -362 -1 -228 -154 -423 -398 -505 l-65 -22 78 -33 c190 -78 385 -39
531 107 74 74 127 173 149 278 19 88 19 134 1 228 -53 275 -302 487 -573 487
-48 0 -94 -4 -101 -8z"/>
<path d="M1484 3737 c-5 -18 -23 -41 -42 -53 l-32 -22 29 -10 c20 -7 33 -21
42 -46 7 -20 16 -36 19 -36 3 0 10 15 15 33 7 21 21 37 41 47 l30 14 -30 16
c-19 9 -35 27 -41 47 -15 45 -20 47 -31 10z"/>
<path d="M3607 3663 c-13 -12 -7 -44 9 -50 23 -9 48 25 33 44 -12 14 -32 17
-42 6z"/>
<path d="M3801 3486 c-9 -11 -10 -20 -1 -35 21 -40 79 -15 65 29 -7 24 -46 27
-64 6z"/>
<path d="M4492 3453 c2 -10 10 -18 18 -18 8 0 16 8 18 18 2 12 -3 17 -18 17
-15 0 -20 -5 -18 -17z"/>
<path d="M610 3430 c0 -25 25 -36 45 -20 20 16 7 40 -21 40 -17 0 -24 -6 -24
-20z"/>
<path d="M3714 3355 c-7 -18 3 -35 21 -35 18 0 26 15 19 34 -8 20 -33 21 -40
1z"/>
<path d="M1316 3341 c-4 -5 -2 -12 3 -15 5 -4 12 -2 15 3 4 5 2 12 -3 15 -5 4
-12 2 -15 -3z"/>
<path d="M4567 3320 c-3 -11 -15 -24 -28 -28 l-23 -9 21 -11 c12 -7 25 -21 28
-32 7 -23 25 -27 25 -5 0 8 12 22 26 32 l26 17 -22 8 c-12 4 -24 17 -27 28 -3
11 -9 20 -13 20 -4 0 -10 -9 -13 -20z"/>
<path d="M500 3255 c-10 -12 -9 -16 5 -21 19 -8 40 9 31 25 -10 15 -21 14 -36
-4z"/>
<path d="M3704 3229 c-10 -17 13 -36 27 -22 12 12 4 33 -11 33 -5 0 -12 -5
-16 -11z"/>
<path d="M1410 3200 c0 -5 5 -10 10 -10 6 0 10 5 10 10 0 6 -4 10 -10 10 -5 0
-10 -4 -10 -10z"/>
<path d="M4505 2999 c-6 -19 7 -38 26 -39 14 0 31 31 25 45 -8 23 -44 18 -51
-6z"/>
<path d="M454 2984 l-20 -21 22 -28 c21 -27 22 -27 29 -6 3 11 13 21 21 21 19
0 18 5 -8 32 l-23 23 -21 -21z"/>
<path d="M4684 2975 c-9 -23 3 -45 26 -45 25 0 37 25 20 45 -16 19 -39 19 -46
0z"/>
<path d="M787 2832 c-35 -38 -13 -92 37 -92 44 0 61 68 24 94 -29 21 -41 20
-61 -2z"/>
<path d="M4410 2805 c0 -21 30 -31 40 -14 11 17 3 29 -21 29 -10 0 -19 -7 -19
-15z"/>
<path d="M1054 2679 c-3 -6 0 -17 7 -25 18 -17 44 -2 36 20 -7 18 -33 21 -43
5z"/>
<path d="M4062 2663 c2 -22 8 -28 28 -28 20 0 25 5 25 25 0 20 -6 26 -28 28
-26 3 -28 1 -25 -25z"/>
<path d="M1350 2650 c0 -5 5 -10 10 -10 6 0 10 5 10 10 0 6 -4 10 -10 10 -5 0
-10 -4 -10 -10z"/>
<path d="M3852 2448 c-6 -14 -21 -30 -34 -34 l-23 -7 23 -8 c12 -5 27 -21 33
-36 l11 -28 10 28 c6 16 20 30 35 33 l26 7 -27 14 c-15 8 -31 24 -36 36 -8 22
-8 22 -18 -5z"/>
<path d="M1257 2400 c-9 -11 -13 -20 -8 -20 4 0 12 -9 17 -19 9 -19 10 -19 26
4 16 21 16 24 0 39 -17 14 -19 14 -35 -4z"/>
<path d="M1261 2186 c-16 -19 -11 -46 12 -60 25 -16 52 4 52 40 0 24 -5 30
-26 32 -14 2 -31 -4 -38 -12z"/>
<path d="M382 2480 c0 -14 2 -19 5 -12 2 6 2 18 0 25 -3 6 -5 1 -5 -13z"/>
<path d="M1400 1736 c0 -3 15 -12 33 -20 l32 -16 -24 20 c-21 19 -41 26 -41
16z"/>
<path d="M2485 1238 c-26 -23 -26 -23 -28 -196 -2 -172 -2 -174 22 -193 33
-27 86 -25 116 6 24 23 25 28 25 179 0 166 -7 197 -47 215 -36 16 -59 13 -88
-11z"/>
<path d="M2938 1254 c-15 -5 -18 -18 -18 -83 0 -78 0 -79 29 -84 34 -7 70 1
94 21 24 21 24 103 -2 126 -19 18 -74 28 -103 20z"/>
<path d="M3870 1073 c-83 -30 -89 -154 -9 -182 25 -9 37 -7 68 9 72 36 77 113
11 158 -34 22 -44 25 -70 15z m69 -68 c41 -47 40 -67 -2 -27 -18 18 -38 32
-43 32 -6 0 -18 -16 -28 -36 -12 -27 -20 -34 -28 -26 -14 14 34 92 56 92 8 0
28 -16 45 -35z m-19 -86 c0 -6 -4 -7 -10 -4 -5 3 -10 11 -10 16 0 6 5 7 10 4
6 -3 10 -11 10 -16z"/>
</g>
</svg>
